#N canvas 50 114 1462 834 12;
#X obj 184 377 bng 19 250 50 0 empty empty empty 0 -10 0 12 #fcfcfc #000000 #000000;
#X obj 765 88 soundfiler;
#N canvas 0 22 450 278 (subpatch) 0;
#X array audio 4.95607e+06 float 2;
#A color 0;
#A width 2;
#X coords 0 1 4.95607e+06 -1 1205 140 1;
#X restore 93 167 graph;
#X listbox 837 125 20 0 0 0 - - - 0;
#X obj 766 126 s nsample;
#X obj 634 109 print;
#X msg 765 30 read -resize /Users/philippecaillot/Documents/pedagogie/cham4/priseDeSon17_10_25/lina.wav audio;
#X obj 857 393 array define rms 100000;
#X obj 857 448 array define onsets 1000;
#X floatatom 508 364 5 0 0 0 - - - 0;
#X obj 508 443 tabread onsets;
#X obj 533 390 + 1;
#X obj 622 444 tabread onsets;
#X obj 508 657 pack f f;
#X obj 510 778 dac~;
#X listbox 557 684 20 0 0 0 - - - 0;
#X obj 506 325 bng 19 250 50 0 empty empty empty 0 -10 0 12 #fcfcfc #000000 #000000;
#X floatatom 531 477 6 0 0 0 - - - 0;
#X floatatom 635 479 9 0 0 0 - - - 0;
#X obj 628 535 -;
#X obj 628 559 t b f;
#X obj 509 720 tabplay~ audio;
#X obj 173 434 onsets 0.02;
#X msg 231 391 threshold \$1;
#X floatatom 235 351 5 0 0 0 - - - 0;
#X connect 0 0 22 0;
#X connect 1 0 4 0;
#X connect 1 0 5 0;
#X connect 1 1 3 0;
#X connect 6 0 1 0;
#X connect 9 0 10 0;
#X connect 9 0 11 0;
#X connect 10 0 13 0;
#X connect 10 0 17 0;
#X connect 11 0 12 0;
#X connect 12 0 18 0;
#X connect 13 0 15 0;
#X connect 13 0 21 0;
#X connect 16 0 9 0;
#X connect 17 0 19 1;
#X connect 18 0 19 0;
#X connect 19 0 20 0;
#X connect 20 0 13 0;
#X connect 20 1 13 1;
#X connect 21 0 14 0;
#X connect 21 0 14 1;
#X connect 23 0 22 0;
#X connect 24 0 23 0;
